<?xml version="1.0" encoding="UTF-8"?>
<svg version="1.1" viewBox="0 0 2048 2048" width="626" height="626" xmlns="http://www.w3.org/2000/svg">
<path transform="translate(0)" d="m0 0h2048v2048h-2048z" fill="#031E34"/>
<path transform="translate(1013,230)" d="m0 0h22l13 4 11 6 11 9 8 11 6 12 5 14v18l-4 14-8 16v3l6 4 4 6 1 3v9l-4 7-10 9-5 2v47l6-12h2v-3h2l1-5h2l1-4 1-2h2v-3h2l1-4h2l2-5 3-3 2-4h2l2-5 5-5 6-5 5-5 7-6 2-3 3-1 2-3 3-1 1-2 3-1 1-2h3v-2l4-1v-2h3v-2l4-1 3-3h3v-2l19-10 8-3 5-2h3v-2l14-5 9-3 17-4 16-4 16-2 9-2 21-2h58l47 3 44 5 47 7 57 11 75 16 51 9 32 3h34l26-3 14-2 5-2 9-1 9-4 14-4 10-4 19-8 9-4 7-2v-2l10-4 16-8h2v-2l9-3v-2l9-4 3-2h3l-1 4-8 10-3 5-5 5-4 6-17 17-8 9-4 2-5 5-4 2-1 2-7 4-1 2h-3v2h-3v2h-3v2h-3v2l-8 4h-2v2l-11 5h-2v2l-25 11-12 3-10 4-26 6-22 3-29 2 5 1 15 1h54l26-2 35-7 24-8 21-9 17-9 8-5h2l-1 6-8 18-7 11-14 18-14 14-13 10-15 10-23 12-20 8-23 7-29 6-25 2-31 1 18 1h31l25-2 24-4 25-7 20-8 12-5h2l-1 4-9 16-9 12-12 13-14 13-26 16-19 9-30 10-23 5-25 3h-25v2h45l21-2 26-5 26-8h3l-2 5-7 11-9 10-11 11-15 11-15 9-20 9-18 6-22 5-19 3-20 1h-22l-13 9-15 8-14 5-13 4-20 3h-37l-24-4-22-6-19-7-6 1-11 4-20 4h-24l-23-5-16-6-16-8-11-7-12-9-13-12-20-20-7-8-36-36 3 5 13 15 10 13 9 12 10 12 9 11 15 15 12 9-1 3-6 2-10 1h-21l-21-5-12-5-11-6-10-8-10-9-8-10-10-15 6 16 10 19 6 8v2l-5 1h-13l-14-3-15-6-11-8-9-10-9-17-19-57v-2l-3 3h-2v6l-2 4-3 107-3 127-1 57 25-9 28-11 26-11 17-9 13-9 12-11 8-11 5-12 1-6v-14l-6-18-6-8-5-3-5 1-17 6-14 2h-11l-15-2-21-7-10-7-5-7 1-4 17-7 19-13 12-6 5-1h21l17 3 16 6 14 8 11 9 6 7 9 15 7 21 2 12v20l-4 15-6 16-12 18-9 10-12 12-17 13-15 10-21 12-23 12-14 7-5 1 5 5 14 10 11 9 16 16 13 17 9 15 8 16 5 16 3 16 1 10v26l-2 13-5 18-9 19-7 11-10 13-11 12-8 7-16 13-15 10-3 3 11 9 2 1v2l4 2 10 8 10 10 11 14 8 14 7 17 6 21v37l-4 19-7 18-10 19-11 14-9 10-15 15-16 12-11 7h-2l3 5 1 3 4 2 11 12 12 17 8 16 5 12 5 19 1 7v32l-5 21-6 16-6 12-7 11-9 11-19 19-13 10 5 4 14 11 11 9 13 12 9 11 10 14 8 16 6 18 2 12v29l-3 14-7 20-6 11-7 9-9 10-10 10-17 12-9 6-4 1 1-5 8-7 10-11 12-17 6-11 4-8 3-11 1-7v-29l-3-14-5-12-7-11-11-13-9-9-14-10-15-10-11-7-1 69-2 84-3 10-5 5-3 1h-8l-8-4-4-5-1-4-3-135v-21l-14 9-19 13-13 11-9 9-7 10-9 17-4 12-1 9v20l2 12 6 18 8 14 12 16 14 15 6 5v2l-6-1-19-13-10-8-13-13-10-13-8-15-6-17-2-13v-29l3-16 7-18 8-15 9-11 8-10 17-17 13-10 10-8 3-3-14-10-21-21-12-17-8-16-7-21-3-17v-28l3-17 6-18 8-16 7-12 11-12 7-8 8-8 1-2-5-2-18-13-14-12-14-14-11-14-8-13-6-12-6-16-3-12-2-17v-15l2-18 5-16 6-15 8-13 8-10 11-13 7-7 11-9 12-9 1-2-6-2-14-10-14-11-13-12-10-11-10-14-11-21-7-22-2-11v-31l3-19 5-18 7-16 8-13 8-12 12-14 7-7 11-9 5-4 14-10 5-3h2v-2l-6-1-35-18-24-14-12-8-14-10-15-14-8-8-10-13-9-16-5-15-2-10v-19l2-15 7-19 8-13 9-10 12-10 16-8 16-5 11-2h24l12 5 18 12 7 4 15 6-1 5-7 8-12 7-15 5-15 2h-13l-16-3-16-6h-5l-5 5-5 9-4 10-1 6v15l4 13 7 10 9 10 10 8 15 9 16 8 20 9 29 11 20 8 4 1v-50l-2-88-3-133-1-20-4-11v-2l-3 2-16 49-7 17-6 9-9 10-10 7-11 5-11 3h-24l1-4 7-11 10-21 5-12-14 21-12 13-15 12-16 8-16 5-13 2h-19l-17-3v-3l13-10 17-17 9-11 13-16 7-10 10-12 9-11 4-5-6 5h-2v2l-21 21-4 5-8 7-6 7-25 25-11 9-15 10-15 8-21 8-19 4h-27l-21-5-12-4-6 1-22 8-25 6-16 2h-35l-25-4-20-7-16-8-15-10h-28l-33-4-18-4-19-6-15-6-20-11-16-12-12-11-10-11-8-13v-2l8 1 19 6 27 5 19 2h44v-2h-20l-28-3-22-5-16-5-16-6-17-8-21-13-10-8-10-9-7-7-11-14-8-13-3-6v-4l9 3 21 9 23 7 23 4 13 2 13 1h37l16-1-34-1-21-2-22-4-25-7-21-8-22-11-14-9-16-12-15-14-9-10-11-16-8-16-5-11v-2h5l9 6 10 6 23 10 24 8 22 5 24 4 36 3 44-2 12-2-39-3-8-2-15-2-26-7-12-4v-2l-5-1-22-10-5-2v-2l-7-2-5-3v-2l-5-1v-2l-6-2-6-5-4-2v-2l-4-1v-2l-4-1-5-5-8-6-15-15v-3l-3-1v-2l-4-2-1-4-3-1-1-4-3-1-3-5-1-3h-2v-2l-4-2-5-7 1-2 5 1 4 2v2l5 2 9 4v2l9 3 8 4v2l10 3v2l9 2 20 9v2l7 1 24 9 21 6 18 4 28 3h33l38-4 24-4 9-1 12-3 13-2 16-4 12-2 16-4 14-3 22-4 12-3 52-9 56-7 55-4h58l31 3 23 4 28 7 20 7 8 4 10 4 14 7v2l6 2 6 4 10 6v2l6 2 1 3 4 1 1 2 4 2 2 3 5 3 3 3v2l4 2 6 7 2 1v2l4 2 1 4 4 2v3l4 2 2 3v3l3 1 4 8 3 3v3h2l1 5h2l4 8 1 6h3l-1-3-1-11v-35l-5-2-9-7-5-7-1-9 4-8 8-7-1-5-8-16-3-13v-12l2-12 4-9 6-11 8-10 10-9 16-8z" fill="#004D79"/>
<path transform="translate(130,279)" d="m0 0 5 1 4 2v2l5 2 9 4v2l9 3 8 4v2l10 3v2l9 2 20 9v2l7 1 24 9 21 6 18 4 28 3h33l38-4 24-4 9-1 12-3 13-2 16-4 12-2 16-4 14-3 22-4 12-3 52-9 56-7 55-4h58l31 3 23 4 28 7 20 7 8 4 10 4 14 7v2l6 2 6 4 10 6v2l6 2 1 3 4 1 1 2 4 2 2 3 5 3 3 3v2l4 2 6 7 2 1v2l4 2 1 4 4 2v3l4 2 2 3v3l3 1 4 8 3 3v3h2l1 5h2l4 8 3 7 1 2 1 75v32l-3-1-2-9-3 2-16 49-7 17-6 9-9 10-10 7-11 5-11 3h-24l1-4 7-11 10-21 5-12-14 21-12 13-15 12-16 8-16 5-13 2h-19l-17-3v-3l13-10 17-17 9-11 13-16 7-10 10-12 9-11 4-5-6 5h-2v2l-21 21-4 5-8 7-6 7-25 25-11 9-15 10-15 8-21 8-19 4h-27l-21-5-12-4-6 1-22 8-25 6-16 2h-35l-25-4-20-7-16-8-15-10h-28l-33-4-18-4-19-6-15-6-20-11-16-12-12-11-10-11-8-13v-2l8 1 19 6 27 5 19 2h44v-2h-20l-28-3-22-5-16-5-16-6-17-8-21-13-10-8-10-9-7-7-11-14-8-13-3-6v-4l9 3 21 9 23 7 23 4 13 2 13 1h37l16-1-34-1-21-2-22-4-25-7-21-8-22-11-14-9-16-12-15-14-9-10-11-16-8-16-5-11v-2h5l9 6 10 6 23 10 24 8 22 5 24 4 36 3 44-2 12-2-39-3-8-2-15-2-26-7-12-4v-2l-5-1-22-10-5-2v-2l-7-2-5-3v-2l-5-1v-2l-6-2-6-5-4-2v-2l-4-1v-2l-4-1-5-5-8-6-15-15v-3l-3-1v-2l-4-2-1-4-3-1-1-4-3-1-3-5-1-3h-2v-2l-4-2-5-7z" fill="#0097DA"/>
<path transform="translate(1913,281)" d="m0 0h3l-1 4-8 10-3 5-5 5-4 6-17 17-8 9-4 2-5 5-4 2-1 2-7 4-1 2h-3v2h-3v2h-3v2h-3v2l-8 4h-2v2l-11 5h-2v2l-25 11-12 3-10 4-26 6-22 3-29 2 5 1 15 1h54l26-2 35-7 24-8 21-9 17-9 8-5h2l-1 6-8 18-7 11-14 18-14 14-13 10-15 10-23 12-20 8-23 7-29 6-25 2-31 1 18 1h31l25-2 24-4 25-7 20-8 12-5h2l-1 4-9 16-9 12-12 13-14 13-26 16-19 9-30 10-23 5-25 3h-25v2h45l21-2 26-5 26-8h3l-2 5-7 11-9 10-11 11-15 11-15 9-20 9-18 6-22 5-19 3-20 1h-22l-13 9-15 8-14 5-13 4-20 3h-37l-24-4-22-6-19-7-6 1-11 4-20 4h-24l-23-5-16-6-16-8-11-7-12-9-13-12-20-20-7-8-36-36 3 5 13 15 10 13 9 12 10 12 9 11 15 15 12 9-1 3-6 2-10 1h-21l-21-5-12-5-11-6-10-8-10-9-8-10-10-15 6 16 10 19 6 8v2l-5 1h-13l-14-3-15-6-11-8-9-10-9-17-19-57v-2l-3 3h-2l-2 7h-2l1-98 1-9 3-7 5-10h2v-3h2l1-5h2l1-4 1-2h2v-3h2l1-4h2l2-5 3-3 2-4h2l2-5 5-5 6-5 5-5 7-6 2-3 3-1 2-3 3-1 1-2 3-1 1-2h3v-2l4-1v-2h3v-2l4-1 3-3h3v-2l19-10 8-3 5-2h3v-2l14-5 9-3 17-4 16-4 16-2 9-2 21-2h58l47 3 44 5 47 7 57 11 75 16 51 9 32 3h34l26-3 14-2 5-2 9-1 9-4 14-4 10-4 19-8 9-4 7-2v-2l10-4 16-8h2v-2l9-3v-2l9-4z" fill="#0097DA"/>
<path transform="translate(151,366)" d="m0 0h5l9 6 10 6 23 10 24 8 22 5 24 4 36 3 44-2 12-2-39-3-5-1v-1l37 2h33l43-3 58-7 13-2 44-6 48-6 49-5h13l-2 2-16 4-36 10-20 7-20 6-36 12-31 10-23 7-19 4h-57l-3 1 9 7 14 8 14 6 21 7 18 4h44l20-4 21-5v2l-24 9-22 6-24 5-1 1 15 10 15 8 21 8 16 4 15 2h32l24-4 25-8 10-4v3l-19 10-20 8-14 6h-2l1 2 17 7 21 7 16 3h27l21-3 22-6 16-7 3-1-2 4-10 7-14 8-9 6-19 9h-2v2l7 1 7 3 25 6 8 1h20l19-3 16-4 21-8 15-8 16-11 13-11 10-9 22-22 1-2h2l2-4 21-21 2-3-6-7-8-7 2-5 15-15 7 6 8 9 4 4 8 10 10 15 12 22 9 20 2 4v3l-3 2-16 49-7 17-6 9-9 10-10 7-11 5-11 3h-24l1-4 7-11 10-21 5-12-14 21-12 13-15 12-16 8-16 5-13 2h-19l-17-3v-3l13-10 17-17 9-11 13-16 7-10 10-12 9-11 4-5-6 5h-2v2l-21 21-4 5-8 7-6 7-25 25-11 9-15 10-15 8-21 8-19 4h-27l-21-5-12-4-6 1-22 8-25 6-16 2h-35l-25-4-20-7-16-8-15-10h-28l-33-4-18-4-19-6-15-6-20-11-16-12-12-11-10-11-8-13v-2l8 1 19 6 27 5 19 2h44v-2h-20l-28-3-22-5-16-5-16-6-17-8-21-13-10-8-10-9-7-7-11-14-8-13-3-6v-4l9 3 21 9 23 7 23 4 13 2 13 1h37l16-1-34-1-21-2-22-4-25-7-21-8-22-11-14-9-16-12-15-14-9-10-11-16-8-16-5-11z" fill="#0079AE"/>
<path transform="translate(1894,366)" d="m0 0h2l-1 6-8 18-7 11-14 18-14 14-13 10-15 10-23 12-20 8-23 7-29 6-25 2-31 1 18 1h31l25-2 24-4 25-7 20-8 12-5h2l-1 4-9 16-9 12-12 13-14 13-26 16-19 9-30 10-23 5-25 3h-25v2h45l21-2 26-5 26-8h3l-2 5-7 11-9 10-11 11-15 11-15 9-20 9-18 6-22 5-19 3-20 1h-22l-13 9-15 8-14 5-13 4-20 3h-37l-24-4-22-6-19-7-6 1-11 4-20 4h-24l-23-5-16-6-16-8-11-7-12-9-13-12-20-20-7-8-36-36 3 5 13 15 10 13 9 12 10 12 9 11 15 15 12 9-1 3-6 2-10 1h-21l-21-5-12-5-11-6-10-8-10-9-8-10-10-15 6 16 10 19 6 8v2l-5 1h-13l-14-3-15-6-11-8-9-10-9-17-19-57v-2l-4 3 1-5 4-10 7-15 10-19 7-10 8-12 11-13 9-11 4-1 5 5 4 5 7 6 1 4-13 11-1 4 4 4v2l4 2 23 23 7 8 23 23 2 1v2l4 2 19 13 18 10 23 9 21 5 12 1h17l21-3 15-4 13-5-20-10-12-7-8-6-9-5-4-5 9 3 16 6 18 4 21 2h20l19-3 20-7 16-7 2-1-11-5-17-7-23-11-4-3 1-2 18 7 21 6 20 3h35l21-4 21-7 16-8 18-12h2l-1-2-21-4-31-9-15-6v-2l11 2 16 4 14 2 15 1h16l27-4 23-8 25-12 13-10-33 1h-19l-15-2-15-4-16-5-20-6-33-11-43-14-18-6-44-12-1-2h17l45 5 71 9 20 3 2 1 27 3 44 5 14 1 4 1h48l20-1h14v1l-38 3 5 1 15 1h54l26-2 35-7 24-8 21-9 17-9z" fill="#007AAE"/>
<path transform="translate(151,366)" d="m0 0h5l9 6 10 6 23 10 24 8 22 5 24 4 36 3 44-2 12-2-39-3-5-1v-1l37 2h33l43-3 58-7 13-2 44-6 48-6 49-5h13l-2 2-16 4-36 10-20 7-20 6-36 12-31 10-23 7-19 4h-57l-3 1 9 7 14 8 14 6 21 7 18 4h44l20-4 21-5v2l-24 9-22 6-24 5-1 1 15 10 15 8 21 8 16 4 15 2h32l24-4 25-8 10-4v3l-19 10-20 8-14 6h-2l1 2 17 7 21 7 16 3h27l21-3 22-6 16-7 3-1-2 4-10 7-14 8-9 6-19 9h-2v2l7 1 7 3 25 6 8 1h20l19-3 16-4 21-8 15-8 16-11 13-11 10-9 22-22 1-2h2l2-4 21-21 2-3-6-7-8-7 2-5 15-15 7 6 8 9 4 4 8 10 10 15 12 22 9 20 2 4v3l-3 2-16 49-7 17-6 9-9 10-10 7-11 5-11 3h-24l1-4 7-11 10-21 5-12-14 21-12 13-15 12-16 8-16 5-13 2h-19l-17-3v-3l13-10 17-17 9-11 13-16 7-10 10-12 9-11 4-5-6 5h-2v2l-21 21-4 5-8 7-6 7-4 3-2-7-6-3-16-2-24 2-35 7-10 3h-5l-2-4 1-4-10-7-11-4-6-1h-27l-20 1h-11l-1-12-3-3v-2l-4-2-11-7-12-4-24-4-20-2h-15v-10l-4-7-2-4-3-2v-2l-4-1-14-7-13-5-17-4-5-2-10-2-6-2-19-4-3-2-8 1-16 1-27 4-10 1h-19v-1l16-1-34-1-21-2-22-4-25-7-21-8-22-11-14-9-16-12-15-14-9-10-11-16-8-16-5-11z" fill="#00649C"/>
<path transform="translate(1894,366)" d="m0 0h2l-1 6-8 18-7 11-14 18-14 14-13 10-15 10-23 12-20 8-23 7-29 6-25 2-31 1 47 2v1h-31l-29-2-27-4h-28l-31 7-29 9-21 10-5 4-7 7-3 14-3 1h-18l-25 4-17 4-16 7-8 7-3 5-1 10-7-1-4-1h-43l-14 3-14 8-3 8-9-1-11-2-16-3-15-4-5-1h-20l-12 1-8 4h-3l2 7-7-6-7-8-36-36 3 5 13 15 10 13 9 12 10 12 9 11 15 15 12 9-1 3-6 2-10 1h-21l-21-5-12-5-11-6-10-8-10-9-8-10-10-15 6 16 10 19 6 8v2l-5 1h-13l-14-3-15-6-11-8-9-10-9-17-19-57v-2l-4 3 1-5 4-10 7-15 10-19 7-10 8-12 11-13 9-11 4-1 5 5 4 5 7 6 1 4-13 11-1 4 4 4v2l4 2 23 23 7 8 23 23 2 1v2l4 2 19 13 18 10 23 9 21 5 12 1h17l21-3 15-4 13-5-20-10-12-7-8-6-9-5-4-5 9 3 16 6 18 4 21 2h20l19-3 20-7 16-7 2-1-11-5-17-7-23-11-4-3 1-2 18 7 21 6 20 3h35l21-4 21-7 16-8 18-12h2l-1-2-21-4-31-9-15-6v-2l11 2 16 4 14 2 15 1h16l27-4 23-8 25-12 13-10-33 1h-19l-15-2-15-4-16-5-20-6-33-11-43-14-18-6-44-12-1-2h17l45 5 71 9 20 3 2 1 27 3 44 5 14 1 4 1h48l20-1h14v1l-38 3 5 1 15 1h54l26-2 35-7 24-8 21-9 17-9z" fill="#00659C"/>
<path transform="translate(892,653)" d="m0 0h24l12 5 18 12 7 4 5 2v2l6 2v2l-4 1-10 4-14 8-13 4-9 1h-10l-12-3-8-4-8-5-7-1-9 4-5 6-6 11-3 7-2 10v21l3 10 7 12 12 15 18 13 16 9 17 8 13 6 45 17 29 11 17 6 17 7 19 10 27 14 10 7 12 8 14 10 10 9 8 8 13 17 11 19 6 15 4 14 2 13 1 28-2 17-4 13-7 16-8 13-7 9-9 10-11 11-17 13-17 11-22 13-17 9-2-1v-26l1-32 8-5 13-8 16-12 10-9 8-8 9-14 5-15 2-11v-12l-3-17-5-14-11-18-12-13-11-10-18-13-29-17-23-12-17-8-33-15-31-15-22-12-21-12-16-11-9-7-10-9-10-10-11-15-7-15-4-13v-26l3-14 5-13 6-10 12-13 9-7 7-6 6-7h2v-2l7-3h3v-2z" fill="#0071A2"/>
<path transform="translate(985,1145)" d="m0 0h4l-1 59-15 13-8 7-5 5-4 2-2 5-5 8-4 11-2 10v23l5 15 5 10 12 17 5 5 10 7v2l6 3v2l4 2 13 10 16 11 7 4v2l5 2 10 7 15 11 13 10v2l4 2 3 2v2h2l7 8 11 11 8 12 6 11 7 16 5 16 2 20-1 19-3 14-7 19-8 15-10 13-22 22-23 16-4 3h-3v-32l2-7 10-9 9-11 7-10 7-12 3-9 2-15v-16l-2-14-5-13-6-11-11-13-11-11-17-12-18-12-21-13-19-12-12-8-16-12-13-12-9-9-8-10-10-15-8-19-4-13-3-17v-28l3-14 8-21 7-12 7-9 9-10 11-12 14-10 13-9 9-7z" fill="#0071A3"/>
<path transform="translate(992,382)" d="m0 0 26 2h11l26-1 1 6-1 72-3 160-2 71-1 30-1 52-1 80-6-1-16-6-15-6-8-4-1-1-2-98-1-27-2-116-1-33-2-127-1-24z" fill="#007BB0"/>
<path transform="translate(699,308)" d="m0 0h45l35 3 22 4 18 5 21 7 18 8 19 9 16 9 14 10v2l4 2 6 5 6 7 2 1v2h2l9 11 7 9 10 15 12 23 4 10 5 18 1 6-4-5-7-10-13-18-13-15-4-5-11-9-11-10-14-10-16-10-19-9-22-8-29-8-26-5-31-2h-53l-37 2-58 5-45 5-83 12-48 6-39 3h-46l-30-3-15-3-17-5-18-5-21-9-10-5 1-2 8 1 16 4 28 5 30 2 30-1 38-5 37-6 66-14 48-10 40-7 46-6 39-4z" fill="#01C9F8"/>
<path transform="translate(1303,308)" d="m0 0h47l40 2 41 4 49 7 49 9 71 15 25 6 50 8 29 3h47l22-3 20-4 10-3h6l-3 3-16 8-21 8-23 6-24 4-11 1-24 1h-24l-31-2-63-7-83-12-35-4-58-6-14-1-33-1h-48l-29 2-28 4-28 7-21 7-16 7-16 9-20 13-12 9-10 8-12 12-13 18-9 13-10 15h-1l1-9 3-8 8-20 10-19 11-16 14-17 11-12 14-12 11-8 18-11 19-9 20-8 19-6 22-5 26-4z" fill="#01C9F8"/>
<path transform="translate(1e3 907)" d="m0 0 9 2 22 12 10 6 1 1v15l-3 124-2 129-3 139-1 30-1 7-2 1-7-5v-2l-6-2-8-6-1-31-1-59-2-71-2-114-2-85-1-57z" fill="#007AAE"/>
<path transform="translate(940,900)" d="m0 0 7 1 36 18 7 4v2l-11 7-15 13-11 9-9 9-10 15-6 16-3 15v23l3 12 7 14 8 11 13 13 14 10 23 16 1 1v21l-20 11-11 7-6-1-17-11-10-8-13-11-7-7-9-11-10-14-8-14-5-14-3-14-1-7v-27l2-17 5-18 5-12 6-11 8-11 13-16 12-12 8-7z" fill="#0071A3"/>
<path transform="translate(1894,366)" d="m0 0h2l-1 6-8 18-7 11-14 18-14 14-13 10-15 10-23 12-20 8-23 7-29 6-9 1h-51l-32-3-13-2-1-4 4-11h2l2-4 9-7 13-10 3-3 9-4 21-9 6-2 13-3 25-4 16-4 16-5 13-5 14-1v-2l35-7 24-8 21-9 17-9z" fill="#0079AD"/>
<path transform="translate(151,366)" d="m0 0h5l9 6 10 6 23 10 11 4v2l5 1 4 2 15 3 12 3 27 4 16 6 4 1v2l8 1 13 4 16 4v2l24 2 18 4 12 5 4 2v2l6 2 8 6 5 3 13 13 4 8v6l-14 4-28 3h-40l-28-2-20-4-24-7-20-8-20-10-14-9-16-12-15-14-9-10-11-16-8-16-5-11z" fill="#0079AE"/>
<path transform="translate(915,504)" d="m0 0h7l3 2 2 6 1 22 11-1 11 1 5 4 4 6v16l1 4v7l-8 21-6 10-11 12-11 7-12 5-8 2h-24l1-4 7-11 10-21 5-12-14 21-12 13-15 12-16 8-16 5-13 2h-19l-17-3v-3l13-10 17-17 9-11 13-16 7-10 10-12 9-11 4-5 5-5 10-11 6-4 5-5 10-8 11-5z" fill="#0079AE"/>
<path transform="translate(1129,505)" d="m0 0 8 1 7 3 6 3v2l4 2 14 11 9 8 7 8 5 5 13 15 10 13 9 12 10 12 9 11 15 15 12 9-1 3-6 2-10 1h-21l-21-5-12-5-11-6-10-8-10-9-8-10-10-15 6 16 10 19 6 8v2l-5 1h-13l-14-3-15-6-11-8-9-10-9-17-5-15v-9l1-3 1-14 3-6 3-3h2v-2l6-2 7 1 7 3 5 1-1-6v-17z" fill="#0079AE"/>
<path transform="translate(1108,1179)" d="m0 0h7l9 10 11 13 10 16 8 19 5 19v27l-3 19-6 18-8 16-10 13-6 8h-2l-2 4-12 12-14 11-17 12-4 2-6-1-11-8-10-6v-21l5-5 15-13 13-12 9-9 9-14 4-11 3-12 1-14-1-13-5-14-10-15-11-11-17-13 4-3 11-6 18-10z" fill="#0071A2"/>
<path transform="translate(1016,406)" d="m0 0h17l8 7 1 4v54l-5 248-2 89-1 18-1 2-6 1v2h-8l-4-5-1-14-3-135-1-68-2-89-1-61v-44l3-5h2v-2h4z" fill="#00B3DF"/>
<path transform="translate(1134,653)" d="m0 0h21v2l12 1 12 5 4 4 4 6v2l4 2 11 7 11 13 6 10 6 17 2 9v24l-3 13-7 15-7 11-9 11-4 4h-2v2l-8 7-10 8-10 7-16 10-25 14-16 8-15 7-4 2-1 2-6-2-25-12v-22l16-5 33-12 19-8 18-8 17-9 16-11 10-10 9-13 5-10 2-6 1-7v-13l-3-12-8-16-5-6-5-4-1-2h-10l-10 4-11 6-4 1h-19l-16-4-13-8-13-6v-2l4-1v-2l10-5 16-11 12-6z" fill="#0071A2"/>
<path transform="translate(849,787)" d="m0 0 4 1 10 9 16 11 10 6 28 13 28 11v2l10 2 14 5 16 6v2l10 2 3 1v2l9 2 8 3 15 6 11 5 21 10 7 5 6 2v2l6 2 7 4 2 3 8 4 3 3 5 4 4 2 22 22 6 7v3h2v3h2l4 7 7 14 1 9h2l4 15 1 9v36l-4 15-4 9-6 12-11 16-9 10-8 7-15 12-6 3h-8l-5-2-4-8v-7l2-4h2v-2l5-2v-2l10-7 12-12 2-3h2l2-4 7-10 7-15 3-12 1-1v-27l-3-16-5-12-4-8-3-7-5-6v-2h-2l-4-6-9-9-8-7-12-10-7-4v-2l-5-2-9-6-16-8-18-10-16-8-12-5-8-4-21-10-15-7-27-13-24-14-14-9-7-6-3-1v-2l-4-2-12-9v-2l-4-2-10-10z" fill="#00B3DE"/>
<path transform="translate(951,1183)" d="m0 0h8l6 5v10l-5 10-3 4h-2l-2 5-6 7-7 10-7 16-3 8v30l5 19 3 6v3h2l4 7v3h2l7 9 9 10 8 6 3 3 20 15 20 14 8 5v2l5 2 5 3 3 3 7 4v2l4 1 2 3 5 2 7 6v2l5 2 10 10 6 8 6 5 6 9v2h2l4 7 4 10 6 17 1 5v36l-4 18-7 17-5 8h-2l-2 5-3 1-2 5-4 5-8 7-9 8h-3v-6l4-6 5-5 8-10 10-16 5-15h2l2-14v-25l-4-16-7-16-3-7-5-6v-2h-2l-7-8-10-10-8-7-9-6v-2h-3v-2h-3v-2l-4-1v-2l-4-1-15-9v-2l-4-1-7-5-8-4v-2h-3v-2l-4-1-8-5v-2l-4-1-22-16v-2l-5-2-9-10-5-5-8-9-4-8-4-5-6-11-4-11-4-18v-32l4-13 6-16 9-15h2l2-4 7-8 14-14z" fill="#00B3DE"/>
<path transform="translate(1016,232)" d="m0 0h21l10 3 4 2 2 6 8 7 7 9 4 9 1 5v17l-4 13-6 10-5 5-9 7-14 5-5 1h-14l-10-3-10-5-10-9-5-9-4-10-2-11v-9l3-11 6-10 7-8 11-7 2-1 2-4z" fill="#00B5E0"/>
<path transform="translate(1476,555)" d="m0 0h23l20 3 30 8 17 6 27 6 30 6 24 2 13 1 9 1 19 1v3l-5 3-15 6-17 5-27 5-28 2-25-1-28-3-16-4-21-6-34-13-11-5-24-11-2-4 3-3 11-4 17-3z" fill="#008FBD"/>
<path transform="translate(542,556)" d="m0 0h31l23 3 19 5v3l-16 8-27 12-26 10-18 6-21 5-18 3-28 2h-23l-18-2-25-6-18-7-11-4-2-4 1-1 10-1 19-1 56-7 9-3 28-7 31-9z" fill="#008FBD"/>
<path transform="translate(957,1431)" d="m0 0 9 5 21 14 4 3-2 5-8 10-6 10-5 11-3 12-1 7v25l2 11 8 17 8 11 8 10 11 11 1 2v18l-11 8-1 2h-3l-4-5-10-7-9-8-7-8-10-11-9-13-7-14-5-17-2-13v-30l3-17 7-19 10-17 8-10z" fill="#0071A3"/>
<path transform="translate(706,368)" d="m0 0h43l26 2 26 4 30 7 18 6 18 8-1 3-26 12-7 4-11-1-25-5-24-3-4-2 5-4 11-6 18-9h2v-2l-17 5-10 3-30 10-14 5-4 1-54 4-36 4-45 6-14 1 3-3 16-7 22-10 26-11 25-12 21-8z" fill="#0071BB"/>
<path transform="translate(1292,368)" d="m0 0h50l16 3 27 12 78 35 1 2h-10l-29-4-21-2-31-4-56-4-23-8-36-12-10-3h-6v2l10 3 16 8 15 8v1l-21 1-33 6-7 2h-8l-16-8-15-9v-3l28-11 16-5 18-4 27-4z" fill="#0071BB"/>
<path transform="translate(989,936)" d="m0 0h2l2 95v65l-5-2-17-12-9-7-10-9-10-13-5-10-2-6-1-7v-20l3-14 6-15 8-12 8-8 1-2h2v-2l8-7 13-10z" fill="#041D33"/>
<path transform="translate(1057,937)" d="m0 0 5 2 17 12 15 15 7 8 8 16 3 11 2 14v13l-3 15-6 12-9 11-10 10-17 12-12 7h-3l2-123z" fill="#041D33"/>
<path transform="translate(1598,503)" d="m0 0h12l27 2 28 3 21 2 14 1 27 1 9-1h18l1 1v5l-16 8-19 7-26 8-26 4-14 1h-38l-20-2-14-3-37-10-2-1-9-1-3-3 1-4 9-4 25-8 24-5z" fill="#008FBD"/>
<path transform="translate(437,502)" d="m0 0h8l24 4 28 8 12 4 6 4-1 4-6 3-39 10-8 2-15 2-18 1-46-1-23-3-21-4-28-10-19-11-1-2 1-2 18-1h53l26-2z" fill="#008FBD"/>
<path transform="translate(1014,1437)" d="m0 0 5 1 14 9 1 2v42l-2 106-1 19-2 88-1 43-1 66-1 8h-4l-1-9-1-58-2-68-1-57-2-74-1-64z" fill="#0079AE"/>
<path transform="translate(641,372)" d="m0 0h13l-2 2-16 4-36 10-20 7-20 6-36 12-31 10-23 7-19 4h-57l-3 1 3 4-5-2-4-5-7-8-1-3 37-4 25-5 34-9 25-8 20-6-5-1v-1l79-10z" fill="#0071BA"/>
<path transform="translate(1401,373)" d="m0 0h17l45 5 71 9 6 1v1h-9l12 4 13 4 31 9 18 5 31 6 34 4-2 4-6 6-1 3-36 1h-19l-15-2-15-4-16-5-20-6-33-11-43-14-18-6-44-12z" fill="#0070BA"/>
<path transform="translate(669,585)" d="m0 0h22l15 1 3 2v2l-14 8-15 10-16 11-15 9-15 6-21 6-26 5-30 2-19-2-17-3-9-3 1-4 38-8 24-7 30-11 17-7 10-4 17-9 12-3z" fill="#008FBD"/>
<path transform="translate(1359,585)" d="m0 0h22l15 3 17 6 21 10 18 8 11 5 28 10 24 4 16 4-1 4-19 5-16 3h-18l-26-3-11-2-20-6-16-7-19-10-25-15-16-12-2-3h2l1-3z" fill="#008FBD"/>
<path transform="translate(929,929)" d="m0 0 8 4 4 4-1 9-5 8-1 3h-2l-2 6-5 9-7 14-5 17-1 8v19l2 15 5 11 10 16 12 16 2 5-1 5-8 7-5 1-7-3-9-8-13-18-7-14-6-20-1-5v-29l4-20 6-18 9-16 10-14 6-7z" fill="#008EBC"/>
<path transform="translate(1295,404)" d="m0 0 22 1v2l10 3 25 11 10 4 20 9 27 13 20 9 28 14 10 3 24 11 4 3-7 2-11 1h-21l-21-3-22-7-25-11-14-8-34-21-14-8-19-12-16-9-6-4 1-2z" fill="#00B4DF"/>
<path transform="translate(743,403)" d="m0 0h7l10 2 1 3-14 8-27 16-15 9-8 5-22 13-13 8-17 9-21 8-25 5-10 1h-26l-11-1-3-1v-2l28-11 27-12 16-8 20-9 16-7 16-8 15-7 22-8 18-9z" fill="#00B5E0"/>
<path transform="translate(1106,1199)" d="m0 0h6l6 4 8 9 8 14 6 12 3 11 2 18v15l-2 14-5 17-11 21-9 12-12 14-8 6-2 1h-7l-5-2-6-7 2-6 7-9 13-13 9-14 5-11 4-15 1-6v-21l-3-13-11-20-8-11-2-4 1-7 4-6z" fill="#008FBD"/>
<path transform="translate(1827,419)" d="m0 0 5 1v4h-2v2l-17 12-13 8-20 9-23 7-23 4-29 3h-15l-25-4-3-3 1-3 13-10h2v-2l13-8 12-5 5-2 15-3 9-1 36-1 23-2 26-3z" fill="#008FBD"/>
<path transform="translate(214,418)" d="m0 0 14 1 6 2 28 5 19 1 46 1 10 2 10 4 7 4 12 7 12 9 8 5 1 4-4 2-29 3h-24l-26-4-22-5-15-6-24-11-9-5-12-8-8-7z" fill="#008FBD"/>
<path transform="translate(993,1210)" d="m0 0h2l1 10 2 64 1 61-4-1-14-12-8-7-7-8-4-5-7-14-4-14v-19l5-16 7-11 15-15 9-7 4-2z" fill="#041D33"/>
<path transform="translate(1052,1212)" d="m0 0 4 1 14 11 17 17 6 10 4 13v20l-5 16-6 12-7 9-13 13-11 9-3 2h-3l1-56z" fill="#041D33"/>
<path transform="translate(833,415)" d="m0 0 11 4-2 4-15 12-11 9-10 8-17 14-7 6h-2v2l-16 12-5 4-10 7-13 8-16 7-19 6-17 3-17 1-4-2 12-8 11-6 19-11 5-4 27-18 21-13 20-13 11-7 18-12 21-12z" fill="#00B5E0"/>
<path transform="translate(1212,416)" d="m0 0h7l20 12 11 6 22 14 35 24 14 9 16 10 18 11 23 13 6 4v2h-25l-20-5-23-9-16-9-11-7-11-9-14-12-12-10-14-11-13-10-13-11-7-5-1-3z" fill="#00B5E0"/>
<path transform="translate(506,388)" d="m0 0h15l-3 2-33 10-15 5-36 9-20 4-28 3h-9l7 8 5 7 10 5 4 3 1 4-5-1-13-10-6-3-28-6-17-4-9-2-14-2-10-4-14-2-16-6-31-5-16-4-10-2-6-3 4-1 21 6 34 6 36 3 44-2 12-2-39-3-5-1v-1l37 2h33l43-3 58-7 13-2z" fill="#004E7A"/>
<path transform="translate(1530,388)" d="m0 0 17 1 9 2 27 3 44 5 14 1 4 1h48l20-1h14v1l-38 3 5 1 15 1h54l26-1v1l-18 3-12 5-16 5-13 3-29 5-37 8-4-1 3-5 7-8h-10l-31-4-27-6-29-8-30-9-12-4z" fill="#004D7A"/>
<path transform="translate(1161,442)" d="m0 0 4 1 10 8 13 10 21 18 14 11 14 12 14 11 11 10 15 10 10 8 8 7v2l-7 1-16-4-18-6-16-8-14-8-10-8-13-11-17-17v-2h-2v-2l-4-2-7-8-20-20-1-5 9-7z" fill="#00B5E0"/>
<path transform="translate(1013,230)" d="m0 0h22l13 4 11 6 11 9 8 11 5 17v21l-4 15-7 12-10 10-15 9-14 4h-19l-14-4-13-8-6-5-8-11-5-10-3-13v-20l4-15 9-12 7-7 11-7 12-5zm3 2-10 2-2 4-10 6-5 5-8 9-4 8-2 9v9l3 14 5 11 6 8 10 8 13 5 4 1h14l12-3 10-5 9-7 8-13 4-13v-17l-3-10-6-10-9-9-2-1-2-6-10-4-4-1z" fill="#0079AE"/>
<path transform="translate(883,443)" d="m0 0 7 1 7 6-1 5-35 35-7 8-17 17-11 9-11 7-21 10-16 6-13 3-11 1-2-2 11-10 6-4 10-8 13-10 14-11 10-8 12-11 10-8 10-9 9-7 13-10 11-9z" fill="#00B5E0"/>
<path transform="translate(1016,232)" d="m0 0h21l10 3 4 2 2 6 8 7 7 9 4 9 1 5v17l-4 13-6 10-5 5-9 7-14 5-5 1h-14l-10-3-10-5-10-9-5-9-4-10-2-11v-9l3-11 6-10 7-8 11-7 2-1 2-4zm26 12-9 1h-9l-16 5-8 5v2h-2l-6 8-3 7-1 14 3 8 9 11 9 6 11 4 20-5 7-2 4-5 3-4 10-1v-2l4-2 2-3v-10l-5-4-3-2h-5v-18l-3-6-7-6z" fill="#0098DC"/>
<path transform="translate(294,414)" d="m0 0 10 2 12 4 13 2 20 4 16 4 18 4 18 13h2v-2l6 2 16 8 24 8 18 4h44l20-4 21-5v2l-24 9-22 6-24 5-1 1 15 10 15 8 3 2-6-1h-2l5 4-5-1-12-4-13-3-5-2-10-2-6-2-19-4-3-2-8 1-16 1-27 4-10 1h-19v-1l16-1-34-1-21-2v-1l22 1h40l28-3 14-3-2-8-5-8-12-12-5-3-12-7v-2l-9-3-7-3-18-4-16-1-8-2v-2l-11-2-15-4-11-3z" fill="#00659D"/>
<path transform="translate(677,369)" d="m0 0h11v4l-21 9-26 12-28 12-21 10-14 3-3 3-37 5h-7l2-2 14-2 6-5v-3l-12-2 4-8 25-8 19-6 18-6 33-9 14-2 13-4z" fill="#009AD0"/>
<path transform="translate(1022,937)" d="m0 0 6 2 3 2-1 81-1 39-2 51-1 73-1 47h-3l-2-114-2-73-1-8v-96l3-3z" fill="#00B3DF"/>
<path transform="translate(990,1634)" d="m0 0h3l1 3v24l-12 8-17 12-11 9-10 9-6 7-8 13-7 17-3 14-1 33h-2l-4-15-1-10v-11l2-19 4-14 8-16 8-12 12-14 9-10 8-7 10-9z" fill="#0070A2"/>
<path transform="translate(999,1461)" d="m0 0h2l1 38 1 81-12-12-9-15-5-10-3-14v-19l3-16 8-16 11-14z" fill="#041D33"/>
<path transform="translate(1047,1462)" d="m0 0 4 2 10 12 8 13 2 4 3 24-1 15-3 12-8 16-9 12-6 6h-2v-30l1-65z" fill="#041D33"/>
<path transform="translate(976,341)" d="m0 0 4 2 10 7 13 6 11 3h21l15-5 11-6 9-7 4 1 5 8v7l-4 6-6 5-9 5-17 4-18 2-17-1-16-4-9-4-8-5-6-7-1-6 2-5z" fill="#0079AE"/>
<path transform="translate(932,450)" d="m0 0 4 2 8 10 10 15 12 22 9 20 2 4v3l-3 2-11 34-1-4v-10l-6-17-14-26-5-9-12-16-9-10 1-5z" fill="#004D79"/>
<path transform="translate(1114,450)" d="m0 0 4 2 13 14-1 4-10 13-10 14-10 17-6 12-5 11-3 8-1 13-2-3-9-27v-2l-4 3 1-5 4-10 7-15 10-19 7-10 8-12z" fill="#004D79"/>
<path transform="translate(961,1450)" d="m0 0 4 1 5 4-1 7-12 25-4 17-1 10v14l4 20 5 14 7 12 11 13 6 7v5l-5-1-8-7-10-10-9-13-7-14-5-15-3-17v-10l2-20 4-15 5-12 8-13z" fill="#008FBD"/>
<path transform="translate(1081,1655)" d="m0 0 5 1 13 12 13 15 12 17 7 18 4 20 1 11v11l-2 13-2 7-2-2-1-22-3-15-4-12-7-14-7-9-9-10-10-10-13-10-10-7-1-4z" fill="#0070A2"/>
<path transform="translate(1355,285)" d="m0 0h23l19 2 24 2 35 4 39 6 43 8 48 10 56 12 42 7 18 2 2 3h-19l-21-3-44-8-70-15-41-8-41-7-37-5-29-3-47-3-15-2v-1z" fill="#041120"/>
<path transform="translate(1136,521)" d="m0 0 4 1 26 26 8 10v2h2l7 9 11 13 11 14 9 12 7 9v2h2l2 5-3 1-11-4-9-7-10-9-9-10-11-15-12-20-14-22-10-14z" fill="#0099CD"/>
<path transform="translate(912,520)" d="m0 0h2l-2 5-11 13-10 15-6 11-14 22-12 16-8 9-13 9-9 2-1-4 6-8 16-21 11-15 11-14 9-10 7-8 16-16z" fill="#0099CE"/>
<path transform="translate(1174,399)" d="m0 0 4 2 16 12 6 4 1 3-23 12-14 9-5-2-11-7-8-7 2-4 14-11 16-10z" fill="#0071BB"/>
<path transform="translate(646,287)" d="m0 0h14l4 1v2l-4 1-33 3-47 6-57 10-12 3-17 3-14 3-16 4-26 5-25 5-2 1-27 4-13 2h-17l4-2 8-2 20-3 74-15 21-5 26-5 24-5 39-7 56-7z" fill="#031221"/>
<path transform="translate(872,399)" d="m0 0 7 3 12 8 11 8 6 5-2 4-10 7-9 6-6-1-18-11-10-5-7-3 5-5 13-10z" fill="#0071BB"/>
<path transform="translate(1382,374)" d="m0 0h8l19 4 14 4 9 2 19 6 1 3h8l2 1v3h5v2l10 1 8 5-1 3h-5l-3 1-3-1-1 2-9-3-4 1-1 2-13-3v-2h-5l-3-2-10-2-5-7-15-5-1 2-21-7-3-3v-2l-4-2z" fill="#009AD0"/>
<path transform="translate(1473,422)" d="m0 0h11l6 2 74 8 23 1 12 2 1 3-18 5-14 2h-16l-20-2-22-5-24-8-11-5-2-1z" fill="#00B5E0"/>
<path transform="translate(567,422)" d="m0 0 4 2-3 3-20 8-24 6-20 3h-29l-15-2-10-3-1-3 8-2 15-1 60-6z" fill="#00B5E0"/>
<path transform="translate(1042,244)" d="m0 0 7 2 7 8 1 3v18h5l8 6v10l-4 5-2 1h-12l-5-6-1-8-3-7-4-2v-2l-4-2-4-4v-2h-3l1-11 3-5 3-3z" fill="#01C9F8"/>
<path transform="translate(1267,589)" d="m0 0 9 1 16 5 12 6 15 10 2 1v2l5 2 11 8 6 4v3l-7 1-8-1-16-6-16-8-10-6-11-8-7-6-3-5z" fill="#008FBD"/>
<path transform="translate(773,590)" d="m0 0h9l2 4-8 7-13 10-8 5-22 10-21 6h-4l-1-3 7-7 16-12 9-6 19-9z" fill="#008FBD"/>
<path transform="translate(1188,795)" d="m0 0 2 1-5 7h-2l-1 3-4 3h-2v2l-17 12-21 13-17 9-18 8-5 2-5-1-2-3v-5l5-4 24-10 26-11 19-10 14-9z" fill="#008FBD"/>
<path transform="translate(976,354)" d="m0 0h5l10 5 15 2h27l13-1 7 1 13-5 4 1-2 4-14 8-11 3-19 2h-8l-17-3-10-4-7-4-5-5z" fill="#0097CE"/>
<path transform="translate(228,456)" d="m0 0 5 1 25 12 24 8 19 5 25 4 14 1 41 1v1l-23 2h-37l-20-2-19-3-17-4-21-7-12-5-1-3 2-1 34 12h3l-12-4-11-5-14-7-5-4z" fill="#041221"/>
<path transform="translate(1811,459)" d="m0 0h5l-4 4-16 8-13 5-10 2v2l15-4 7-2 5-2 2 2-3 1v2l-24 7-20 4-17 2-16 1h-31l-18-1-5-1v-1l36-1 25-2 29-6 26-8 23-10z" fill="#041221"/>
<path transform="translate(1746,555)" d="m0 0h3l-2 6-3 3 1 2-5 3-2 4h-2l1 4-12-5-5-1-4 1-18-1-2 1-10-1-42-2-27-3-4-2 44-1 3-1h20v1l-18 2h-25v2h45l21-2 26-5z" fill="#006C9D"/>
<path transform="translate(285,537)" d="m0 0 6 1 22 10 21 7 21 5 12 2 21 2 20 1v2l-6 1h-38l-26-3-23-5-13-4v-3l9 1 15 4 5 1v-2l-10-2-9-3-8-3-14-7z" fill="#041222"/>
<path transform="translate(1770,530)" d="m0 0h3l-2 4-6 2v2l-16 8-11 5-17 6 14-1v3l-15 4-17 3-21 2h-36l-9-1v-2l25-1 31-4 24-6 25-9 21-10z" fill="#041222"/>
<path transform="translate(1053,465)" d="m0 0h1v47l-2 109-2 71-1 30-1 52-1 80-4-1h3v-98l1-64 2-78 2-79 1-51z" fill="#006CA0"/>
<path transform="translate(1104,541)" d="m0 0h2l8 11 11 21 11 28 3 8v3l-4-1-7-6-6-10-10-24-6-21z" fill="#008FBD"/>
<path transform="translate(1128,433)" d="m0 0h3l5 5 4 5 7 6 1 4-13 11-3 4v-2l-4-2-12-13-2-2 11-12z" fill="#0071BA"/>
<path transform="translate(917,433)" d="m0 0 7 6 8 9 2 2-8 7-9 9-3 1-6-7-8-7 2-5z" fill="#0070BA"/>
<path transform="translate(1029,1022)" d="m0 0h1v47l-2 68-1 54-1 79-1 10-2 1-1-2-1-20v-93h1l1 66h1l1-47 1-73 2-51z" fill="#0095C7"/>
<path transform="translate(942,542)" d="m0 0h1l-1 9-6 17-10 25-5 10-8 9-3-1 1-6 11-28 7-15 9-16z" fill="#0099CD"/>
<path transform="translate(1243,615)" d="m0 0 7 6 10 9 7 5-1 3-6 2-10 1h-21l-21-5-6-2 4-1 11 1 15-1 6-2 2-6 7 3h4v-2l-5-2-4-6z" fill="#006A9B"/>
<path transform="translate(770,288)" d="m0 0h16l23 4 23 6 20 7 9 4 11 5v2l7 2 5 4v2h5l3 3-1 2-8-3v-2l-6-2-14-7-11-4-12-5-24-7-17-4-27-4-3-2z" fill="#031221"/>
<path transform="translate(1074,1345)" d="m0 0 1 3v5h3l2-1-1 6 1 3 4 2v2l10 2v1l-17 2h-7l-5-2v-4l-5 5-3 1-4-4 2-8 5-5h2v-2l4-1 1-3z" fill="#007BB0"/>
<path transform="translate(1185,542)" d="m0 0 7 6 32 32 2 8 3 1 4 6h-2v2l3 1 4 6 6 7 4 4-1 2-5-3-11-12-7-9-8-10-10-13-7-9-13-15z" fill="#041322"/>
<path transform="translate(212,317)" d="m0 0 9 1 15 6 28 8 21 4 16 2 3 3h-16l-19-3-23-6-20-7-12-5z" fill="#041221"/>
<path transform="translate(1032,1500)" d="m0 0h1v48l-1 49-1 19-2 88-1 43h-1v-45l1-52v-37l1-13z" fill="#006A9F"/>
<path transform="translate(1194,569)" d="m0 0 5 2 5 6 4 6 7 9 5 5 6 2-3-5 1-2 7 8 6 7-1 2-9 1-8-7-5-4-7-8-9-10-4-9z" fill="#0070A0"/>
<path transform="translate(862,542)" d="m0 0 2 1-11 13-11 14-7 9-10 13-7 9-3-1 2-4 4-7 2-6 9-10 7-8 10-10 4-5h2v-2z" fill="#041222"/>
<path transform="translate(1063,359)" d="m0 0 2 1-5 4-13 4-18 3h-13l-17-3-10-4-4-4 11 2 22 3h20l17-3z" fill="#00B5E0"/>
<path transform="translate(1110,836)" d="m0 0 9 1h4l-6 4-2 1-1 5-8 5-8 3-5-1-2-3v-5l5-4z" fill="#0099CE"/>
<path transform="translate(1015,225)" d="m0 0h17l13 3 14 8 6 5 5 5 1 3-4-1-8-7-16-8-8-2h-22l-11 3-3-1 5-2 1-3z" fill="#041221"/>
<path transform="translate(241,378)" d="m0 0 9 2 10 4v2l9 2 25 7 9 2 13 2 13 3-2 2h-18l-8-4-10-1-5-2-18-5-13-5-9-4-5-3z" fill="#031525"/>
<path transform="translate(437,478)" d="m0 0h10l-2 2-16 4-42 6-10 1h-19v-1l16-1-34-1-21-2v-1l22 1h40l37-4 11-3z" fill="#014D79"/>
<path transform="translate(294,414)" d="m0 0 10 2 12 4 13 2 20 4 16 4 18 4 18 13 2 4-4-2-12-7v-2l-9-3-7-3-18-4-16-1-8-2v-2l-11-2-15-4-11-3z" fill="#006FA1"/>
<path transform="translate(1606,479)" d="m0 0h15l3 2 20 3 25 2 35 1v1l-31 1 47 2v1h-31l-29-2-41-6-10-1z" fill="#014D79"/>
<path transform="translate(910 1e3)" d="m0 0h2v49l-4-2-2-4-2-13v-14l3-11z" fill="#009ACE"/>
<path transform="translate(1766,485)" d="m0 0 4 1-3 3-4 1h-13l-1 2-26 1-11 2h-30l-8-3v-1h46l2-1 25-2z" fill="#0070A2"/>
<path transform="translate(907,427)" d="m0 0h5l1 7-4 6-8 4-2-1-1 7-4-2-4-6 4-2 1-5 4-4 4-3z" fill="#009AD0"/>
<path transform="translate(972,345)" d="m0 0v3l-1 7 5 8 3 1v2l5 1 11 5 18 3h21l11-2h11l-3 2-16 3-12 1-17-1-16-4-9-4-8-5-6-7-1-6 2-5z" fill="#00679D"/>
<path transform="translate(903,578)" d="m0 0 1 2-5 12-11 23-3-1-1-4-12 12-10 6h-2v-2l11-8 13-12 9-12 9-15z" fill="#041322"/>
<path transform="translate(1239,601)" d="m0 0h5l13 13 14 11 14 9 6 3v2l-8-1-4-4-8-4-11-8-10-8-8-7v-2h-2z" fill="#041121"/>
<path transform="translate(1066,356)" d="m0 0 4 1-2 4-14 8-11 3-19 2h-8l-17-3-10-4-3-3 5 2 10 3 13 2h22v-2l18-4 9-4h-3l-5 2h-12l-10-1v-1l13-1 7 1z" fill="#0092C2"/>
<path transform="translate(1122,581)" d="m0 0 2 1v2h2l8 15 3 4 2 9-4-1-7-6-6-10-2-5v-7z" fill="#0099CD"/>
<path transform="translate(859,400)" d="m0 0h3l1 5-9 5-7 8h-2l-1 2-11-5v-2l15-8z" fill="#009AD2"/>
<path transform="translate(895,836)" d="m0 0 10 2 6 3 2 2 3 1v2l6 1v2l6 2 6 4 1 3h-6l-16-8-5-3-4-1v-2l-6-2v-3l-3-1z" fill="#007AAF"/>
<path transform="translate(1071,1512)" d="m0 0 2 1 1 4-1 15-3 12-8 16-9 12-5 5h-2v-6l6-4 10-13 4-9 4-23z" fill="#041221"/>
<path transform="translate(1247,291)" d="m0 0h15l-3 2-22 5-16 4-7 3-11 3-4-1 5-3 10-4 7-3 12-2 6-2z" fill="#031525"/>
<path transform="translate(1171,807)" d="m0 0h4l-2 4-6 4-4 1-1 3-3 2h-3v2l-9 5-8 2-2-5 21-10z" fill="#0098CC"/>
<path transform="translate(854,584)" d="m0 0 2 3v7l-4 7-4 6-1 1h-8l-3 1 2-4 14-19z" fill="#008FBD"/>
<path transform="translate(943,529)" d="m0 0 9 2 5 4 1 4h2l3 11v8l-2 10-2-4 1-3-2-1v-16l-6-8-10-2h-12l4-3z" fill="#0072A3"/>
<path transform="translate(1013,230)" d="m0 0h22l13 4 11 6 7 6v5l-3 2-8-8-3-2-1-6-10-3-4-1h-21l-14 1 3-2z" fill="#006FB5"/>
<path transform="translate(1146,582)" d="m0 0 4 4 11 16 11 12 12 9-1 2-10-6-9-8h-3-3l-8-17-4-10z" fill="#041222"/>
<path transform="translate(605,653)" d="m0 0 13 1-3 2-18 4-16 2h-35l-8-1v-1h30l16-1 3-1 1-2 5-2z" fill="#006291"/>
<path transform="translate(1780,388)" d="m0 0 2 1-3 3-7 3-20 4-11 4-14 1v-4l23-4 25-6z" fill="#041120"/>
<path transform="translate(915,504)" d="m0 0h7l3 2 2 6 1 22v3h-2l-1-9-1-10-1-7-3-2-9 1-8 2-11 6h-3l10-8 11-5z" fill="#0072A3"/>
<path transform="translate(937,952)" d="m0 0 1 3-9 16-1 2h-2l-3 10-4 10-3 10h-2v-8l6-16 12-22h2v-3z" fill="#006499"/>
<path transform="translate(848,632)" d="m0 0 4 1-6 4-7 3-20 4h-20l-5-2v-1l23-1 17-3z" fill="#041120"/>
<path transform="translate(1101,530)" d="m0 0h9l8 3h5v3l-9-1-6-3-10 1v2l-5 4-2 5-1 14-2 9-2-3v-18l4-10 5-4z" fill="#0070A1"/>
<path transform="translate(1811,481)" d="m0 0m-3 1h3v2l3-1 5 1-4 7-2 1-1-4-16 3-8 3h-5l-1-2 1-2 11-4 13-2z" fill="#0070A0"/>
<path transform="translate(1660,562)" d="m0 0h20v1l-18 2h-25v2l45 1v1h-38l-27-3-4-2 44-1z" fill="#014D79"/>
<path transform="translate(1136,521)" d="m0 0 4 1 26 26 8 10v2h2l3 4-1 2-9-10v-2h-2l-3-5-2-1v-2h-2l-5-6-7-3-2 1-10-14z" fill="#008FBD"/>
<path transform="translate(963,561)" d="m0 0h2v7l-4 5-2 7-1 7-5 6-5 11-7 8-4 3h-2v2h-3l1-3 8-7 6-8 7-14 8-23z" fill="#041323"/>
<path transform="translate(992,382)" d="m0 0 14 1v1l-12 1v14l1 34v72h-1l-1-70-1-24z" fill="#006CA0"/>
<path transform="translate(285,537)" d="m0 0 6 1 22 10 17 6-1 2h-6l-10-3-9-4-14-7z" fill="#041221"/>
<path transform="translate(551,458)" d="m0 0 1 2-24 9-6 2h-5l8-4-12 2h-43v-1l41-1 20-4z" fill="#0071A7"/>
<path transform="translate(261,470)" d="m0 0h9l17 6 21 5 8 2 3 2-12-1-21-5-20-6-5-2z" fill="#006191"/>
<path transform="translate(1811,459)" d="m0 0h5l-4 4-16 8-13 5-8 1v-3l19-7z" fill="#041322"/>
<path transform="translate(419,563)" d="m0 0h15l-1 2-21 3-9 1h-38v-1l43-1v-2h-20v-1z" fill="#014D79"/>
<path transform="translate(1498,459)" d="m0 0 11 2 16 4 14 2v1l-7 1 3 1 1 3-10-2-21-7-7-3z" fill="#006CA4"/>
<path transform="translate(1105,678)" d="m0 0 5 1 2 4h2l5 7v5l-6-2-2-1v-2l-4-2v-2l-3-1-2-3v-3z" fill="#007BB0"/>
<path transform="translate(1140,1089)" d="m0 0 1 2-3 5-4 5-5 4-2 3h-2v2l-8 7-6 4h-3l2-4 10-8 8-7 7-8z" fill="#006398"/>
<path transform="translate(926,656)" d="m0 0 9 3 5 4 14 7 11 7-4 1-12-5-18-12-5-3z" fill="#041221"/>
<path transform="translate(1104,541)" d="m0 0h2l8 11 4 8-1 9-4-4-2-3-2-10h-2l-3-8z" fill="#0099CE"/>
<path transform="translate(151,366)" d="m0 0h5l9 6 5 4-7 1-3 1 1 4-2 4-8-18z" fill="#006292"/>
<path transform="translate(1635,460)" d="m0 0v3l-2 12-1 2h-2v4l3 2-9-1-1-4 4-11h2l2-4z" fill="#0071A2"/>
<path transform="translate(294,414)" d="m0 0 10 2 12 4 13 2 20 4 3 2-23-2-26-7-11-3z" fill="#01649C"/>
<path transform="translate(795,610)" d="m0 0 2 1-1 2h-2l-2 4-4 5-12 8-15 9-5 1v-2l14-8 11-8z" fill="#041323"/>
<path transform="translate(1552,648)" d="m0 0 4 1-13 7-26 7h-10l3-2 13-3 22-7z" fill="#041424"/>
<path transform="translate(1158,1057)" d="m0 0 1 3-5 12-3 7h-2l-2 5-3 5-3 2-2-1 2-4 7-11 8-16z" fill="#00689F"/>
<path transform="translate(1682,430)" d="m0 0 4 1-21 9-10 5-7 6-4 3-2-1 7-6 3-4 7-4 3-3 10-2v-2z" fill="#0070A2"/>
<path transform="translate(1022,937)" d="m0 0 6 2 2 2v8l-3-2-2-4-3-1-3 30h-1v-33z" fill="#00C8F7"/>
<path transform="translate(964,1509)" d="m0 0h1l1 24 2 11 8 17 8 11 4 5-1 2-7-8-6-9-8-16-2-8-1-17z" fill="#01649C"/>
<path transform="translate(1160,615)" d="m0 0 4 4 5 7v2l-5 1h-13l-11-2v-1l18 1v-8z" fill="#006393"/>
<path transform="translate(1187,402)" d="m0 0h6l10 6 3 5-3 1h-6v-2l-5-2-5-5z" fill="#009AD1"/>
<path transform="translate(1529,652)" d="m0 0 7 2-3 2-15 4-6 1h-9v-2h10l-1-5 13-1z" fill="#006899"/>
<path transform="translate(1171,528)" d="m0 0 4 2 11 9 5 4 4 5v2h2l7 8 3 3-1 2-20-20h-3l-11-12z" fill="#014D79"/>
<path transform="translate(897,1334)" d="m0 0h2l7 10 3 6 4 4 9 11v3l-6-4-11-14-8-13z" fill="#015C90"/>
<path transform="translate(416,629)" d="m0 0 52 1 2 2-12 1h-16l-26-3z" fill="#005A88"/>
<path transform="translate(1134,1331)" d="m0 0h3l1 3-6 11h-2l-2 4-3 3h-2l-1-4 11-15z" fill="#007BB0"/>
<path transform="translate(1320,649)" d="m0 0 18 1 32 2v1l-6 1h-24l-20-4z" fill="#005F8F"/>
<path transform="translate(1216,639)" d="m0 0 13 1 27 1-1 2-7 1h-23l-9-4z" fill="#041120"/>
<path transform="translate(1257,580)" d="m0 0h20l16 4 4 2-8-1-16-3-24 1-10 4-4 4-1-5 11-5z" fill="#0072A3"/>
<path transform="translate(291,553)" d="m0 0 8 1 9 3-3 2-1 5-6-1-1 2-6-10z" fill="#0066A6"/>
<path transform="translate(849,560)" d="m0 0 3 1 1 7-8 6-7 1 2-4z" fill="#006C9D"/>
<path transform="translate(1828,464)" d="m0 0h2l-1 4-3 6h-1v-6h-2l-1 3h-3l-2 4-2 1h-7l-4-2z" fill="#006595"/>
<path transform="translate(1894,366)" d="m0 0h2l-1 6-3 7-2-3v-2l-5 1-4 3-8 3-4-1 17-9z" fill="#00629A"/>
<path transform="translate(1766,485)" d="m0 0 4 1-3 3-4 1h-13l-1 2h-11l-16-1v-1l25-2z" fill="#006090"/>
<path transform="translate(1087,1553)" d="m0 0h1v7l-10 16-8 10h-2l2-5 6-8 9-16z" fill="#006AA0"/>
<path transform="translate(900,664)" d="m0 0 8 1 9 4 4 3h-14l-8-4z" fill="#041E34"/>
<path transform="translate(1092,1574)" d="m0 0 1 3-8 10-14 13-2-1 5-7h2l2-4h2l2-4 4-6z" fill="#006BA1"/>
<path transform="translate(960,959)" d="m0 0h3l-1 4-4 5-5 5-7 11-3 1 1-5 7-11 8-8z" fill="#041222"/>
<path transform="translate(1393,497)" d="m0 0 28 10-4 1-4-1 17 8 1 2-9-3-25-12-4-3z" fill="#006CA7"/>
<path transform="translate(637,505)" d="m0 0 3 1-5 4-7 3-12 3-4-1 1-3 12-3z" fill="#00517F"/>
<path transform="translate(1138,664)" d="m0 0 5 1-1 4-8 3h-10l2-4z" fill="#041E34"/>
<path transform="translate(1454,657)" d="m0 0 14 2h10l6 1 19 1v1h-37l-19-3v-1z" fill="#005B89"/>
<path transform="translate(513,506)" d="m0 0 6 2 10 5 4 5 5 7 1 7-1 6h-1l-2-10-6-9-5-5-2-1v-2l-4-1-5-3z" fill="#0072A3"/>
<path transform="translate(344,488)" d="m0 0h37v1l-23 2h-37v-1l23-1z" fill="#041E34"/>
<path transform="translate(1030,1569)" d="m0 0h1v47l-1 15-2-2v-16l1-13z" fill="#0070A2"/>
<path transform="translate(1173 1e3)" d="m0 0h1l1 28-2 17-2 7-2-2 1-14 2-9z" fill="#01649C"/>
<path transform="translate(1813,492)" d="m0 0h2l-2 5-5 7h-2l-1 3-8 7-4 2-2 4-4 1 2-4 12-11 11-12z" fill="#041221"/>
<path transform="translate(1013,230)" d="m0 0h22l13 4 4 3-5-1-10-3h-21l-14 1 3-2z" fill="#006598"/>
<path transform="translate(1109,1197)" d="m0 0 9 3 4 3v2l4 2 5 5 1 5-3 1-9-12-6-5-8-2z" fill="#007BB0"/>
<path transform="translate(1408,505)" d="m0 0 9 2 11 2v2l8 1v4h-6l-17-8-5-2z" fill="#00507D"/>
<path transform="translate(1199,783)" d="m0 0h2l-1 5-5 5-9 10v-3l2-4h-3l12-12z" fill="#007BB0"/>
<path transform="translate(1419,563)" d="m0 0 1 3-1 10-13-1-42-2v-1h43l11 3v-10z" fill="#0072A3"/>
<path transform="translate(917,1007)" d="m0 0h3l1 5v18h-2l-3-7z" fill="#007BB0"/>
<path transform="translate(918,1756)" d="m0 0h1v27h-2l-4-15v-6l1 3h3z" fill="#01649C"/>
<path transform="translate(1224,581)" d="m0 0 5 4 7 8 7 7-2 2h-4l-2-4-4-1v-4l-7-8z" fill="#04192C"/>
<path transform="translate(912,520)" d="m0 0h2l-2 5-5 6-1-2-6 4-17 17v-3l21-21z" fill="#0090C0"/>
<path transform="translate(1668,488)" d="m0 0h31v1l23 1v1h-31l-18-1-5-1z" fill="#041E34"/>
<path transform="translate(879,525)" d="m0 0 1 2-5 4-9 11-5 2-4 4-2-1 16-17z" fill="#014D79"/>
<path transform="translate(1637,565)" d="m0 0h25v1l20 1v1h-36l-9-1z" fill="#041E34"/>
<path transform="translate(959,539)" d="m0 0 2 3 2 8v8l-2 10-2-4 1-3-2-1v-13l1-4z" fill="#006B9E"/>
<path transform="translate(1072,253)" d="m0 0 5 5 5 14 1 5v21h-1l-1-17-4-14-5-12z" fill="#006DA0"/>
<path transform="translate(653,497)" d="m0 0 2 2-8 5-8 4-2-1v-1l-12 4h-6l3-2 22-7z" fill="#006EA4"/>
<path transform="translate(1122,1218)" d="m0 0 5 1v2h2l-1 4-7-1-5 3h-4l2-6 7-2z" fill="#009BD0"/>
<path transform="translate(1e3 1552)" d="m0 0h1v15h2v13l-5-5-1-4z" fill="#041323"/>
<path transform="translate(525,466)" d="m0 0 4 1-8 3h-4v2l-18 3 1-3 7-3z" fill="#004E7A"/>
<path transform="translate(219,464)" d="m0 0 9 3 9 4v1h-13l-1 4-4-8z" fill="#006090"/>
<path transform="translate(372,432)" d="m0 0 8 1 9 5 10 8 4 4h-3l-9-6-4-2v-2l-4-1-3-3-8-3z" fill="#006DA0"/>
<path transform="translate(1e3 1612)" d="m0 0v3l-8 6h-3l-4-5 1-3h13z" fill="#007AAF"/>
<path transform="translate(1129,1757)" d="m0 0h2l2 6h2v7l-2 9-2 1-1-7z" fill="#01649C"/>
<path transform="translate(927,1500)" d="m0 0h2l2 7v13l-3 2-1-1z" fill="#007BB0"/>
<path transform="translate(286,478)" d="m0 0h11l11 3 8 2 3 2-12-1-21-5z" fill="#005D8D"/>
<path transform="translate(1749,416)" d="m0 0h5l-3 1v2l-16 4-14 2h-8v-1l22-4z" fill="#00689E"/>
<path transform="translate(328,563)" d="m0 0 10 1 26 3v1h-26l-4-2-6-1z" fill="#005A89"/>
<path transform="translate(937,952)" d="m0 0 1 3-9 16-2 2-2-1 1-4 6-11h2v-3z" fill="#00679D"/>
<path transform="translate(990,364)" d="m0 0 9 3 17 3h20v1l-5 1h-17l-18-3-6-3z" fill="#009BD0"/>
<path transform="translate(1124,1548)" d="m0 0 2 1-2 10-4 9h-2l-2 4 1-5 6-17z" fill="#015D92"/>
<path transform="translate(930,560)" d="m0 0 1 3-5 12-4 10-4 7-1-3 11-26z" fill="#008FBD"/>
<path transform="translate(1045,373)" d="m0 0h11l-3 2-18 2h-24l2-2h21z" fill="#0072A3"/>
<path transform="translate(905,1242)" d="m0 0h1v7l-2 6-3 15h-1v-14l3-12z" fill="#00659C"/>
<path transform="translate(904,846)" d="m0 0 6 1 16 8 4 3v2l-6-2-20-11z" fill="#006DA0"/>
<path transform="translate(1668,433)" d="m0 0 4 1-10 3-7 6-5 3h-2l2-4 7-6 1-2z" fill="#015C91"/>
<path transform="translate(992,1116)" d="m0 0h1v14l-5 3h-4v-3l4-2 2-6z" fill="#0079AE"/>
<path transform="translate(1218,615)" d="m0 0 3 2v2h2l2 5-3 1-11-4-1-2h6z" fill="#008FBD"/>
<path transform="translate(248,404)" d="m0 0 19 2 13 4v1h-7l-11-3-13-2z" fill="#006CA0"/>
<path transform="translate(955,1216)" d="m0 0v3l-7 10h-2l-2 4-4 2 1-4 6-8z" fill="#00679E"/>
<path transform="translate(1307,528)" d="m0 0 9 3 2 1v2l10 3 1 2-3 1-10-4-8-6z" fill="#005381"/>
<path transform="translate(976,354)" d="m0 0h5l5 3v2l-2 1 6 4-2 1-8-3-4-6z" fill="#0096CB"/>
<path transform="translate(849,787)" d="m0 0 4 1 10 9 4 4-5-2h-3l-10-10z" fill="#0098CF"/>
<path transform="translate(1164,1086)" d="m0 0 2 1-2 5-6 9-4 5-4 2 2-5 3-4h2l2-5z" fill="#01588A"/>
<path transform="translate(1090,848)" d="m0 0 2 3 3 3 3 2-9 2-3-1-1-4 3-3h2z" fill="#007BB0"/>
<path transform="translate(1155,804)" d="m0 0h2l-2 4-9 5-7 1 1-3z" fill="#007BB0"/>
<path transform="translate(948,600)" d="m0 0 1 3-8 9-4 3h-2v2h-3l1-3 8-7 4-5z" fill="#04111F"/>
<path transform="translate(974,1581)" d="m0 0 7 6 9 11-1 3h-6l-1-2h3l-2-6-9-10z" fill="#007BB0"/>
<path transform="translate(1301,587)" d="m0 0 20 2 8 2h4l2-2-1 5-8-1-25-5z" fill="#0072A3"/>
<path transform="translate(972,345)" d="m0 0v3l-1 7 5 8 3 1v2l4 1-4 1-8-7-3-6 1-7z" fill="#006DA0"/>
<path transform="translate(1420,653)" d="m0 0 10 1 12 3v2l-5 1-5-2-9-2z" fill="#041222"/>
<path transform="translate(1576,633)" d="m0 0h2l-2 4-8 7-5 2h-3v-2l11-7z" fill="#041221"/>
<path transform="translate(368,618)" d="m0 0 6 1 13 4 2 3-9-1-5-2-7-3z" fill="#041322"/>
<path transform="translate(971,408)" d="m0 0 5 2 3 4v9l-3-3-3-6v-2h-2z" fill="#031221"/>
<path transform="translate(209,393)" d="m0 0 7 1 18 5 10 2 1 2-8-1-12-3-10-2-6-3z" fill="#00527F"/>
<path transform="translate(1793,383)" d="m0 0h3v2l-4 3-11 2-1-1-5 2-4-1 8-3 9-2z" fill="#032138"/>
<path transform="translate(1107,1589)" d="m0 0h2l-1 5-3 3h-2l-2 4h-2l-1 4-5 2 2-4 10-11z" fill="#041221"/>
<path transform="translate(1119,1263)" d="m0 0h1v21l-3 14-2 2-1-7 1-2h2l1-8z" fill="#007BB0"/>
<path transform="translate(1091,846)" d="m0 0 1 3 3-1 6 2v2l2 1-5 2-5-1-2-3z" fill="#008FBD"/>
<path transform="translate(435,483)" d="m0 0 5 1 6 2 19 4v1l-12-1-12-2-7-3z" fill="#0072A3"/>
<path transform="translate(743,639)" d="m0 0 7 2-3 2-9 4-3-1 2-5z" fill="#006797"/>
<path transform="translate(1249,618)" d="m0 0 4 2 10 9v2l-4-1-10-9z" fill="#041322"/>
<path transform="translate(879,680)" d="m0 0 5 1 4 4-1 4-5-2-1-3-3 1-1-4z" fill="#007BB0"/>
<path transform="translate(1446,659)" d="m0 0 13 1 5 2-1 2h-8l-7-3z" fill="#041221"/>
<path transform="translate(261,401)" d="m0 0 13 1 6 2v1h-17v-2l-3-1z" fill="#04101F"/>
<path transform="translate(992,382)" d="m0 0 14 1v1l-12 1-1 26h-1z" fill="#00679D"/>
<path transform="translate(1738,489)" d="m0 0h12l-1 3h-11l-16-1v-1z" fill="#005E8E"/>
<path transform="translate(1775,407)" d="m0 0h4v2l-10 3-3 2-12 2 2-2 13-5z" fill="#00699E"/>
<path transform="translate(964,1447)" d="m0 0 7 1-1 7-6-4h-6l2-3z" fill="#007BB0"/>
<path transform="translate(1175,1059)" d="m0 0h2l-2 13-3 6-3 1 1-5z" fill="#015E93"/>
<path transform="translate(1498,459)" d="m0 0 11 2 7 2-2 2 2 2-5-1-13-5z" fill="#0074AF"/>
<path transform="translate(938,363)" d="m0 0 3 1v2l5 2 2 2v5l-5-2-6-9z" fill="#04101E"/>
<path transform="translate(897,330)" d="m0 0 4 1 4 3v3h4v3h-4l-1-2-5-3-3-4z" fill="#031627"/>
<path transform="translate(1015,1375)" d="m0 0h2v2l9 3 1 5-5-1-6-5z" fill="#007BB0"/>
<path transform="translate(900,664)" d="m0 0 8 1 8 3v2h-6l-7-2-3-1z" fill="#041222"/>
<path transform="translate(709,582)" d="m0 0 4 2 1 3-1 3 1 3h5l-2 2h-7l-2-4 3-3-1-4z" fill="#0072A3"/>
<path transform="translate(1705,425)" d="m0 0h8v2l-20 3h-6v-1z" fill="#006B9F"/>
<path transform="translate(1110,1010)" d="m0 0h2l1 3v13l-2 3-1-6z" fill="#04101E"/>
<path transform="translate(949,1308)" d="m0 0 3 3 11 16-1 2-6-7-6-9z" fill="#01649C"/>
<path transform="translate(1111,1030)" d="m0 0h1v10l-4 9-1 2h-2l1-4 4-12z" fill="#041425"/>
<path transform="translate(390,565)" d="m0 0h18v2l-6 1h-11z" fill="#041E34"/>
<path transform="translate(912,520)" d="m0 0h2l-2 5-5 6-1-2-4 1 6-7z" fill="#008FBD"/>
<path transform="translate(1083,1217)" d="m0 0 6 1 4 8-2 1-8-8z" fill="#007BB0"/>
<path transform="translate(1660,562)" d="m0 0h20v1l-18 2h-7l2-2z" fill="#005584"/>
<path transform="translate(1101,530)" d="m0 0h9l8 3h5v3l-9-1-6-3h-8z" fill="#0072A3"/>
<path transform="translate(1828,468)" d="m0 0h2v6l-6 7h-2l2-5z" fill="#041221"/>
<path transform="translate(1519,424)" d="m0 0 7 1 1 3h-9l-13-2v-1h11z" fill="#009AD1"/>
<path transform="translate(1089,389)" d="m0 0 1 2-2 4h-2v3h-2v2h-2v-6l4-4z" fill="#031323"/>
<path transform="translate(1171,807)" d="m0 0h4l-2 4-6 4-2-1 1-4z" fill="#0097C9"/>
<path transform="translate(1142,668)" d="m0 0 1 2-6 3h-18v-2l6-2-1 3 14-2z" fill="#014D79"/>
<path transform="translate(1518,659)" d="m0 0h6v2l-7 2h-10l3-2z" fill="#041221"/>
<path transform="translate(1529,652)" d="m0 0 7 2-3 2-6 2h-4v-4z" fill="#006696"/>
<path transform="translate(1552,648)" d="m0 0 4 1-13 7-4-1 1-2z" fill="#041221"/>
<path transform="translate(1243,615)" d="m0 0 7 6 3 4-7-1-4-6z" fill="#006393"/>
<path transform="translate(888,613)" d="m0 0 3 3-1 5-8 3 2-5z" fill="#006898"/>
<path transform="translate(963,561)" d="m0 0h2v7l-4 5-2 3 1-8z" fill="#041120"/>
<path transform="translate(282,482)" d="m0 0h6v3l12 2v1l-13-1-9-2z" fill="#041E34"/>
<path transform="translate(1540,426)" d="m0 0 6 3v1h-10l-7-1v-2z" fill="#009AD1"/>
<path transform="translate(1884,372)" d="m0 0 2 1-5 5-8 3-4-1z" fill="#005E8E"/>
<path transform="translate(570,397)" d="m0 0h3l-2 4-3 1h-10l2-2z" fill="#0098DA"/>
<path transform="translate(227,395)" d="m0 0 15 2 1 2h-13l-3-2z" fill="#041120"/>
<path transform="translate(1401,646)" d="m0 0 8 1 5 2v2l2 1-9-1-6-4z" fill="#041221"/>
<path transform="translate(484,643)" d="m0 0 6 2 9 4v2l-7-1-8-6z" fill="#041323"/>
<path transform="translate(653,497)" d="m0 0 2 2-8 5-4 1v-2l-2-1z" fill="#006FA7"/>
<path transform="translate(551,458)" d="m0 0 1 2-11 4v-2l-5 2h-5l4-2z" fill="#0077AD"/>
<path transform="translate(1070,341)" d="m0 0 4 1 4 6-1 2-6-7-6 5-4 1 5-5z" fill="#006DA0"/>
<path transform="translate(1056,1088)" d="m0 0 4 1 1 4-4 2h-3v-5z" fill="#041323"/>
<path transform="translate(1132,662)" d="m0 0 11 1 2 4-2 1-1-3-8 1-6 1z" fill="#015688"/>
<path transform="translate(1521,387)" d="m0 0h13l6 1v1h-9l2 2-11-2z" fill="#0067A2"/>
<path transform="translate(1051,237)" d="m0 0 5 1 4 4-3 1-2 2-3-2z" fill="#0071A7"/>
<path transform="translate(1061,1446)" d="m0 0 4 1 8 8 1 4h-2l-7-8z" fill="#006AA1"/>
<path transform="translate(1201,563)" d="m0 0 4 4 4 5-1 2-5-2-3-5z" fill="#006595"/>
<path transform="translate(1053,1213)" d="m0 0 4 1 3 2v2h-3v2l-3 1-1-2z" fill="#041221"/>
<path transform="translate(999,1462)" d="m0 0h1v16l-2-4-2-5 1-4z" fill="#04101E"/>
<path transform="translate(1070,1341)" d="m0 0 2 1-5 6-3 3h-2v2l-4-1z" fill="#006B9F"/>
<path transform="translate(940,1236)" d="m0 0 1 2-6 12h-1l1-8 2-4z" fill="#00669E"/>
<path transform="translate(1156,801)" d="m0 0 2 1-3 3-13 6-3-1z" fill="#006DA0"/>
<path transform="translate(540,537)" d="m0 0h13l8 1v1l-18 1-5-1z" fill="#0072A3"/>
<path transform="translate(1227,527)" d="m0 0 5 2 14 7v2l-6-2-10-5v-2h-3z" fill="#009AD2"/>
<path transform="translate(276,473)" d="m0 0 6 1 10 3v1h-10l-4-1v-2h-2z" fill="#006799"/>
<path transform="translate(989,246)" d="m0 0h2l-2 4-7 8v-3l1-4 3-3z" fill="#0073B8"/>
<path transform="translate(205,389)" d="m0 0h8l3 3v1h-7l-3-1z" fill="#041222"/>
<path transform="translate(899,357)" d="m0 0 4 2 11 8 2 4-9-6v-2l-5-2z" fill="#00B5E0"/>
<path transform="translate(589,660)" d="m0 0h10l-3 2-3 1h-11l3-2z" fill="#041120"/>
<path transform="translate(990,364)" d="m0 0 9 3 9 2-1 2-13-3-4-2z" fill="#009AD3"/>
<path transform="translate(1072,253)" d="m0 0 5 5 2 8-3-1-4-10z" fill="#006394"/>
<path transform="translate(1626,628)" d="m0 0h13v1l-12 2h-7l2-2z" fill="#005988"/>
<path transform="translate(1104,541)" d="m0 0h2l5 6-1 2-2-1-1 4-3-8z" fill="#008FBD"/>
<path transform="translate(1828,464)" d="m0 0h2l-1 4-3 6h-1v-6h-2v-2z" fill="#005C8D"/>
<path transform="translate(923,351)" d="m0 0 4 2 7 5v2h2l-1 2-4-1-7-8z" fill="#031323"/>
<path transform="translate(1046,1393)" d="m0 0 1 3 5 2 1 3-7-2-2-2v-3z" fill="#007BB0"/>
<path transform="translate(905,1242)" d="m0 0h1v7l-2 6-2-2 1-9z" fill="#006AA0"/>
<path transform="translate(941,903)" d="m0 0 4 1-1 4-8-1 2-1v-2z" fill="#007BB0"/>
<path transform="translate(1685,559)" d="m0 0h12l-4 2-13 1 2-2z" fill="#005988"/>
<path transform="translate(1113,361)" d="m0 0 2 1-5 6-4 2 2-7z" fill="#031A2D"/>
<path transform="translate(1092,1292)" d="m0 0h1v6l-3 7h-2l2-10z" fill="#041424"/>
<path transform="translate(322,551)" d="m0 0 9 1 4 1v2l3 1-8-1-8-3z" fill="#005B8A"/>
<path transform="translate(1393,497)" d="m0 0 13 5-3 2-6-2-4-3z" fill="#0072B3"/>
<path transform="translate(1040,360)" d="m0 0h6l5 2v1l-18-1v-1z" fill="#008FBD"/>
<path transform="translate(148,284)" d="m0 0 3 1v2l4 2-4 1-5-2-1-3z" fill="#031526"/>
<path transform="translate(1056,266)" d="m0 0h2l2 5v3l2 1h-5l-1-2z" fill="#00B5E0"/>
<path transform="translate(904,846)" d="m0 0 6 1 7 4 1 3-5-2-9-5z" fill="#006B9F"/>
<path transform="translate(532,661)" d="m0 0h9l4 2-2 1h-7l-4-2z" fill="#04101E"/>
<path transform="translate(765,633)" d="m0 0h2l-2 4-9 3v-2z" fill="#041221"/>
<path transform="translate(1802,379)" d="m0 0h5l-2 3-9 2-1-2z" fill="#041323"/>
<path transform="translate(1102,1597)" d="m0 0v3l-3 1-1 4-5 2 2-4z" fill="#041424"/>
<path transform="translate(995,1337)" d="m0 0h3v7l-4-1v-4z" fill="#041221"/>
<path transform="translate(1224,581)" d="m0 0 5 4 3 5-4-1-4-4z" fill="#041D33"/>
<path transform="translate(430,562)" d="m0 0h12v2l-2 1h-7z" fill="#006EA1"/>
<path transform="translate(995,373)" d="m0 0 11 1 5 1v1h-13v-2z" fill="#006FA1"/>
<path transform="translate(1039,358)" d="m0 0 3 1-2 2h-18v-1l13-1z" fill="#0070A5"/>
<path transform="translate(1067,1545)" d="m0 0 1 4-4 8-2-3 4-8z" fill="#041425"/>
<path transform="translate(971,1337)" d="m0 0 5 2 4 3v2l4 2h-3l-5-3v-2l-4-2z" fill="#01649C"/>
<path transform="translate(1157,1098)" d="m0 0 1 3-4 5-4 2 2-5z" fill="#015E93"/>
<path transform="translate(319,589)" d="m0 0 4 2 10 7-1 2-6-4-7-6z" fill="#041425"/>
<path transform="translate(1307,528)" d="m0 0 9 3 2 2-5 1-6-5z" fill="#0075A9"/>
<path transform="translate(237,472)" d="m0 0 5 1 7 3v1h-8v-2l-4-1z" fill="#005E8E"/>
<path transform="translate(372,432)" d="m0 0 8 1 7 4-2 1-13-5z" fill="#01649C"/>
<path transform="translate(1045,373)" d="m0 0h11l-3 2-10 1v-2z" fill="#006B9F"/>
<path transform="translate(1809,349)" d="m0 0h7l-3 3-4 1-5-1 3-2z" fill="#00B5E0"/>
<path transform="translate(1211,301)" d="m0 0m-1 1m-2 1h2l-1 3-6 2-4-1 5-3z" fill="#041323"/>
</svg>
